<?xml version="1.0" encoding="UTF-8"?>
<svg xmlns="http://www.w3.org/2000/svg" xmlns:xlink="http://www.w3.org/1999/xlink" viewBox="0 0 24 24" width="24px" height="24px">
<g id="surface44869416">
<path style=" stroke:none;fill-rule:nonzero;fill:rgb(20.392157%,59.607846%,85.882354%);fill-opacity:1;" d="M 6.238281 1.921875 C 3.859375 1.921875 1.921875 3.859375 1.921875 6.238281 L 1.921875 17.761719 C 1.921875 20.140625 3.859375 22.078125 6.238281 22.078125 L 17.761719 22.078125 C 17.921875 22.078125 18.082031 22.070312 18.238281 22.050781 L 18.238281 1.949219 C 18.082031 1.929688 17.921875 1.921875 17.761719 1.921875 Z M 19.199219 2.171875 L 19.199219 6.71875 L 22.078125 6.71875 L 22.078125 6.238281 C 22.078125 4.363281 20.875 2.765625 19.199219 2.171875 Z M 10.558594 5.761719 C 14 5.761719 16.800781 8.558594 16.800781 12 C 16.800781 15.441406 14 18.238281 10.558594 18.238281 C 7.121094 18.238281 4.320312 15.441406 4.320312 12 C 4.320312 8.558594 7.121094 5.761719 10.558594 5.761719 Z M 10.558594 6.71875 C 7.648438 6.71875 5.28125 9.089844 5.28125 12 C 5.28125 13.351562 5.792969 14.582031 6.632812 15.515625 C 7.625 14.507812 9.050781 13.921875 10.558594 13.921875 C 12.066406 13.921875 13.496094 14.507812 14.488281 15.515625 C 15.324219 14.578125 15.839844 13.351562 15.839844 12 C 15.839844 9.089844 13.472656 6.71875 10.558594 6.71875 Z M 19.199219 7.679688 L 19.199219 11.519531 L 22.078125 11.519531 L 22.078125 7.679688 Z M 10.558594 8.878906 C 11.75 8.878906 12.71875 9.847656 12.71875 11.039062 C 12.71875 12.230469 11.75 13.199219 10.558594 13.199219 C 9.367188 13.199219 8.398438 12.230469 8.398438 11.039062 C 8.398438 9.847656 9.367188 8.878906 10.558594 8.878906 Z M 19.199219 12.480469 L 19.199219 16.320312 L 22.078125 16.320312 L 22.078125 12.480469 Z M 19.199219 17.28125 L 19.199219 21.828125 C 20.875 21.234375 22.078125 19.636719 22.078125 17.761719 L 22.078125 17.28125 Z M 19.199219 17.28125 "/>
</g>
</svg>
